<?xml version="1.0" standalone="no"?><!DOCTYPE svg PUBLIC "-//W3C//DTD SVG 1.1//EN" "http://www.w3.org/Graphics/SVG/1.1/DTD/svg11.dtd"><svg t="1553840551828" class="icon" style="" viewBox="0 0 1024 1024" version="1.1" xmlns="http://www.w3.org/2000/svg" p-id="57785" xmlns:xlink="http://www.w3.org/1999/xlink" width="200" height="200"><defs><style type="text/css"></style></defs><path d="M321.011 1024c-68.236-142.003-31.906-223.366 20.54-300.04 57.445-83.945 72.251-167.07 72.251-167.07s45.157 58.694 27.094 150.502c79.767-88.798 94.819-230.268 82.777-284.456 180.299 126.008 257.362 398.832 153.512 601.044C1229.53 711.467 814.58 243.846 742.33 191.153c24.084 52.672 28.65 141.838-20.008 185.111C639.974 63.997 436.371 0 436.371 0c24.083 161.028-87.303 337.128-194.696 468.707-3.768-64.223-7.782-108.52-41.552-169.977-7.578 116.65-96.724 211.734-120.869 328.609-32.705 158.283 24.494 274.175 241.737 396.6z" p-id="57786" fill="#f02b0e"></path></svg>